<?xml version="1.0" encoding="utf-8"?>
<!-- Generator: Adobe Illustrator 27.2.0, SVG Export Plug-In . SVG Version: 6.00 Build 0)  -->
<svg version="1.1" id="Layer_1" xmlns="http://www.w3.org/2000/svg" xmlns:xlink="http://www.w3.org/1999/xlink" x="0px" y="0px"
	 viewBox="0 0 512 512" style="enable-background:new 0 0 512 512;" xml:space="preserve">
<g transform="translate(0.000000,512.000000) scale(0.100000,-0.100000)">
	<path d="M3679,5039c-236-162-406-314-448-402c-21-43-26-47-50-42c-264,57-595,64-855,19c-351-60-678-200-948-406
		c-80-60-190-155-196-168c-1-3,48,4,109,17c129,25,281,38,323,26c28-9,27-10-57-61c-118-73-280-187-427-302
		c-341-267-594-549-726-812c-41-81-87-198-81-205c2-2,49,22,103,53c54,32,130,72,169,89c70,32,180,63,190,53c3-3-10-39-29-80
		c-94-207-132-418-123-685c9-287,65-500,204-777c185-370,392-605,732-828c396-260,908-436,1480-508c86-11,165-20,177-20
		c18,0,24,14,48,111c86,347,84,655-5,897c-29,80-54,126-140,254c-178,266-285,529-330,811c-19,123-7,343,25,442
		c32,101,86,192,154,262c51,51,150,123,170,123c5,0,41-40,80-88c207-259,479-447,714-495l60-12l22-76c81-279,294-351,593-201
		c73,38,125,96,155,178c18,49,22,81,22,184c1,164-17,219-130,388c-60,89-91,148-110,206c-108,326-308,793-426,993
		c-54,93-84,136-131,192c-39,46-43,59-62,221c-21,173-17,446,8,523l15,48l-26-17c-53-33-98-69-155-123c-55-52-57-53-52-25
		c2,16,12,76,21,134s22,120,30,139s13,36,11,38C3785,5108,3736,5078,3679,5039z"/>
</g>
</svg>
